<svg width="130" height="42" viewBox="0 0 130 42" fill="none" xmlns="http://www.w3.org/2000/svg">
<rect x="1" y="1" width="46" height="34" fill="#E81E61"/>
<path d="M19.6506 14.1392C19.4848 13.6023 19.2562 13.1217 18.9645 12.6974C18.6795 12.2666 18.3348 11.8987 17.9304 11.5938C17.5327 11.2888 17.0753 11.0601 16.5582 10.9077C16.0412 10.7486 15.4777 10.669 14.8679 10.669C13.7741 10.669 12.7997 10.9441 11.9446 11.4943C11.0895 12.0445 10.4167 12.8532 9.92614 13.9205C9.44224 14.9811 9.20028 16.2737 9.20028 17.7983C9.20028 19.3362 9.44224 20.6387 9.92614 21.706C10.41 22.7732 11.0829 23.5852 11.9446 24.142C12.8063 24.6922 13.8073 24.9673 14.9474 24.9673C15.9815 24.9673 16.8764 24.7685 17.6321 24.3707C18.3944 23.973 18.9811 23.4096 19.392 22.6804C19.803 21.9446 20.0085 21.0829 20.0085 20.0952L20.8438 20.2244H15.3153V17.3409H23.5781V19.7869C23.5781 21.5303 23.2069 23.0384 22.4645 24.3111C21.7221 25.5838 20.7012 26.5649 19.402 27.2543C18.1027 27.937 16.6113 28.2784 14.9276 28.2784C13.0516 28.2784 11.4044 27.8575 9.9858 27.0156C8.57386 26.1671 7.47017 24.964 6.67472 23.4062C5.88589 21.8419 5.49148 19.9858 5.49148 17.8381C5.49148 16.1941 5.72348 14.7259 6.1875 13.4332C6.65814 12.1406 7.31439 11.0436 8.15625 10.142C8.99811 9.2339 9.9858 8.54451 11.1193 8.07386C12.2528 7.59659 13.4858 7.35795 14.8182 7.35795C15.9451 7.35795 16.9957 7.52367 17.9702 7.85511C18.9446 8.17992 19.8097 8.64394 20.5653 9.24716C21.3277 9.85038 21.9541 10.5663 22.4446 11.3949C22.9351 12.2235 23.2566 13.1383 23.4091 14.1392H19.6506ZM33.6481 28.2983C32.1566 28.2983 30.864 27.9702 29.7702 27.3139C28.6765 26.6577 27.828 25.7396 27.2248 24.5597C26.6282 23.3797 26.3299 22.0009 26.3299 20.4233C26.3299 18.8456 26.6282 17.4635 27.2248 16.277C27.828 15.0904 28.6765 14.169 29.7702 13.5128C30.864 12.8565 32.1566 12.5284 33.6481 12.5284C35.1396 12.5284 36.4322 12.8565 37.5259 13.5128C38.6197 14.169 39.4648 15.0904 40.0614 16.277C40.6647 17.4635 40.9663 18.8456 40.9663 20.4233C40.9663 22.0009 40.6647 23.3797 40.0614 24.5597C39.4648 25.7396 38.6197 26.6577 37.5259 27.3139C36.4322 27.9702 35.1396 28.2983 33.6481 28.2983ZM33.668 25.4148C34.4767 25.4148 35.1528 25.1927 35.6964 24.7486C36.2399 24.2978 36.6443 23.6946 36.9094 22.9389C37.1812 22.1832 37.3171 21.3414 37.3171 20.4134C37.3171 19.4787 37.1812 18.6335 36.9094 17.8778C36.6443 17.1155 36.2399 16.509 35.6964 16.0582C35.1528 15.6075 34.4767 15.3821 33.668 15.3821C32.8394 15.3821 32.15 15.6075 31.5998 16.0582C31.0562 16.509 30.6486 17.1155 30.3768 17.8778C30.1116 18.6335 29.979 19.4787 29.979 20.4134C29.979 21.3414 30.1116 22.1832 30.3768 22.9389C30.6486 23.6946 31.0562 24.2978 31.5998 24.7486C32.15 25.1927 32.8394 25.4148 33.668 25.4148Z" fill="white"/>
<path d="M50.0085 28V7.63636H57.6449C59.2093 7.63636 60.5218 7.90814 61.5824 8.4517C62.6496 8.99526 63.455 9.75757 63.9986 10.7386C64.5488 11.7131 64.8239 12.8499 64.8239 14.1491C64.8239 15.455 64.5455 16.5885 63.9886 17.5497C63.4384 18.5043 62.6264 19.2434 61.5526 19.767C60.4787 20.2841 59.1596 20.5426 57.5952 20.5426H52.1562V17.4801H57.098C58.0128 17.4801 58.7618 17.3542 59.3452 17.1023C59.9285 16.8437 60.3594 16.4692 60.6378 15.9787C60.9228 15.4815 61.0653 14.8717 61.0653 14.1491C61.0653 13.4266 60.9228 12.8101 60.6378 12.2997C60.3527 11.7827 59.9186 11.3916 59.3352 11.1264C58.7519 10.8546 57.9995 10.7188 57.0781 10.7188H53.6974V28H50.0085ZM60.5284 18.7727L65.5696 28H61.4531L56.5014 18.7727H60.5284ZM74.603 28.2983C73.0717 28.2983 71.7493 27.9801 70.6357 27.3438C69.5286 26.7008 68.6768 25.7926 68.0803 24.6193C67.4837 23.4394 67.1854 22.0507 67.1854 20.4531C67.1854 18.8821 67.4837 17.5033 68.0803 16.3168C68.6835 15.1236 69.5253 14.1955 70.6058 13.5327C71.6863 12.8632 72.9557 12.5284 74.4141 12.5284C75.3554 12.5284 76.2436 12.6809 77.0788 12.9858C77.9207 13.2841 78.6631 13.7481 79.3061 14.3778C79.9557 15.0076 80.4661 15.8097 80.8374 16.7841C81.2086 17.7519 81.3942 18.9053 81.3942 20.2443V21.348H68.8757V18.9219H77.9439C77.9373 18.2325 77.7881 17.6193 77.4964 17.0824C77.2048 16.5388 76.7971 16.1113 76.2734 15.7997C75.7564 15.4882 75.1532 15.3324 74.4638 15.3324C73.728 15.3324 73.0817 15.5114 72.5249 15.8693C71.968 16.2206 71.5339 16.6847 71.2223 17.2614C70.9174 17.8314 70.7616 18.4579 70.755 19.1406V21.2585C70.755 22.1468 70.9174 22.9091 71.2422 23.5455C71.567 24.1752 72.0211 24.6591 72.6044 24.9972C73.1877 25.3286 73.8705 25.4943 74.6527 25.4943C75.1764 25.4943 75.6503 25.4214 76.0746 25.2756C76.4988 25.1231 76.8667 24.901 77.1783 24.6094C77.4898 24.3177 77.7251 23.9564 77.8842 23.5256L81.245 23.9034C81.0329 24.7917 80.6286 25.5672 80.032 26.2301C79.442 26.8864 78.6863 27.3968 77.7649 27.7614C76.8435 28.1193 75.7895 28.2983 74.603 28.2983ZM88.8342 28.3082C87.8664 28.3082 86.9947 28.1359 86.2191 27.7912C85.4502 27.4399 84.8403 26.9228 84.3896 26.2401C83.9454 25.5573 83.7234 24.7154 83.7234 23.7145C83.7234 22.8527 83.8825 22.1402 84.2006 21.5767C84.5188 21.0133 84.953 20.5625 85.5032 20.2244C86.0534 19.8864 86.6732 19.6312 87.3626 19.4588C88.0586 19.2798 88.7778 19.1506 89.5202 19.071C90.4151 18.9782 91.141 18.8954 91.6978 18.8224C92.2546 18.7429 92.659 18.6236 92.9109 18.4645C93.1694 18.2988 93.2987 18.0436 93.2987 17.6989V17.6392C93.2987 16.8902 93.0766 16.3101 92.6325 15.8991C92.1883 15.4882 91.5487 15.2827 90.7134 15.2827C89.8318 15.2827 89.1325 15.4749 88.6154 15.8594C88.105 16.2438 87.7603 16.6979 87.5813 17.2216L84.2205 16.7443C84.4857 15.8163 84.9232 15.0407 85.533 14.4176C86.1429 13.7879 86.8886 13.3172 87.7702 13.0057C88.6519 12.6875 89.6263 12.5284 90.6935 12.5284C91.4293 12.5284 92.1618 12.6146 92.891 12.7869C93.6201 12.9593 94.2863 13.2443 94.8896 13.642C95.4928 14.0331 95.9767 14.5668 96.3413 15.2429C96.7125 15.919 96.8981 16.7642 96.8981 17.7784V28H93.4379V25.902H93.3185C93.0998 26.3262 92.7915 26.724 92.3938 27.0952C92.0027 27.4598 91.5089 27.7547 90.9123 27.9801C90.3223 28.1989 89.6296 28.3082 88.8342 28.3082ZM89.7688 25.6634C90.4914 25.6634 91.1178 25.5208 91.6481 25.2358C92.1784 24.9441 92.5861 24.5597 92.8711 24.0824C93.1628 23.6051 93.3086 23.0848 93.3086 22.5213V20.7216C93.1959 20.8144 93.0037 20.9006 92.7319 20.9801C92.4667 21.0597 92.1684 21.1293 91.837 21.1889C91.5056 21.2486 91.1774 21.3016 90.8526 21.348C90.5278 21.3944 90.2461 21.4342 90.0075 21.4673C89.4705 21.5402 88.9899 21.6596 88.5657 21.8253C88.1415 21.991 87.8067 22.223 87.5614 22.5213C87.3162 22.813 87.1935 23.1908 87.1935 23.6548C87.1935 24.3177 87.4355 24.8182 87.9194 25.1562C88.4033 25.4943 89.0198 25.6634 89.7688 25.6634ZM106.185 28.2685C104.985 28.2685 103.911 27.9602 102.963 27.3438C102.016 26.7273 101.266 25.8324 100.716 24.6591C100.166 23.4858 99.891 22.0606 99.891 20.3835C99.891 18.6866 100.169 17.2547 100.726 16.0881C101.29 14.9148 102.049 14.0298 103.003 13.4332C103.958 12.83 105.022 12.5284 106.195 12.5284C107.09 12.5284 107.826 12.6809 108.402 12.9858C108.979 13.2841 109.436 13.6454 109.775 14.0696C110.113 14.4872 110.374 14.8816 110.56 15.2528H110.709V7.63636H114.319V28H110.779V25.5938H110.56C110.374 25.965 110.106 26.3594 109.755 26.777C109.403 27.188 108.939 27.5393 108.363 27.831C107.786 28.1226 107.06 28.2685 106.185 28.2685ZM107.189 25.3153C107.952 25.3153 108.601 25.1098 109.138 24.6989C109.675 24.2812 110.083 23.7012 110.361 22.9588C110.64 22.2164 110.779 21.3513 110.779 20.3636C110.779 19.3759 110.64 18.5175 110.361 17.7884C110.089 17.0592 109.685 16.4924 109.148 16.0881C108.618 15.6837 107.965 15.4815 107.189 15.4815C106.387 15.4815 105.718 15.6903 105.181 16.108C104.644 16.5256 104.239 17.1023 103.968 17.8381C103.696 18.5739 103.56 19.4157 103.56 20.3636C103.56 21.3182 103.696 22.17 103.968 22.919C104.246 23.6615 104.654 24.2481 105.191 24.679C105.734 25.1032 106.4 25.3153 107.189 25.3153Z" fill="#040404"/>
<path d="M8.09091 33.2632L1 39.2632V33.2632H8.09091Z" fill="#E81E61"/>
<path d="M119.537 9.12074V5.18963H121.529C121.689 5.18963 121.863 5.2358 122.051 5.32812C122.239 5.4169 122.399 5.5554 122.531 5.74361C122.665 5.92827 122.733 6.16264 122.733 6.44673C122.733 6.73438 122.664 6.9794 122.525 7.18182C122.387 7.38068 122.218 7.53161 122.019 7.63459C121.824 7.73757 121.639 7.78906 121.465 7.78906H120.027V7.14986H121.199C121.316 7.14986 121.442 7.09126 121.577 6.97408C121.716 6.85689 121.785 6.68111 121.785 6.44673C121.785 6.20526 121.716 6.0419 121.577 5.95668C121.442 5.87145 121.323 5.82884 121.22 5.82884H120.4V9.12074H119.537ZM121.913 7.26705L122.893 9.12074H121.945L120.986 7.26705H121.913ZM121.028 11.4645C120.439 11.4645 119.887 11.3544 119.372 11.1342C118.857 10.9141 118.404 10.6087 118.013 10.218C117.623 9.82741 117.317 9.37464 117.097 8.85973C116.877 8.34482 116.767 7.79261 116.767 7.20312C116.767 6.61364 116.877 6.06143 117.097 5.54652C117.317 5.03161 117.623 4.57884 118.013 4.18821C118.404 3.79759 118.857 3.49219 119.372 3.27202C119.887 3.05185 120.439 2.94176 121.028 2.94176C121.618 2.94176 122.17 3.05185 122.685 3.27202C123.2 3.49219 123.653 3.79759 124.043 4.18821C124.434 4.57884 124.739 5.03161 124.96 5.54652C125.18 6.06143 125.29 6.61364 125.29 7.20312C125.29 7.79261 125.18 8.34482 124.96 8.85973C124.739 9.37464 124.434 9.82741 124.043 10.218C123.653 10.6087 123.2 10.9141 122.685 11.1342C122.17 11.3544 121.618 11.4645 121.028 11.4645ZM121.028 10.4418C121.625 10.4418 122.168 10.2962 122.658 10.005C123.148 9.71378 123.539 9.32315 123.83 8.8331C124.121 8.34304 124.267 7.79972 124.267 7.20312C124.267 6.60653 124.121 6.06321 123.83 5.57315C123.539 5.0831 123.148 4.69247 122.658 4.40128C122.168 4.11008 121.625 3.96449 121.028 3.96449C120.432 3.96449 119.888 4.11008 119.398 4.40128C118.908 4.69247 118.518 5.0831 118.227 5.57315C117.935 6.06321 117.79 6.60653 117.79 7.20312C117.79 7.79972 117.935 8.34304 118.227 8.8331C118.518 9.32315 118.908 9.71378 119.398 10.005C119.888 10.2962 120.432 10.4418 121.028 10.4418Z" fill="#040404"/>
</svg>
